<svg viewBox="0 0 200 200" xmlns="http://www.w3.org/2000/svg">
  <path fill="#8C6F61" d="M38.8,-69.5C49.2,-61.3,55.6,-48.6,62.2,-36.2C68.8,-23.9,75.6,-11.9,76.9,0.7C78.1,13.4,73.9,26.8,65.6,36.4C57.4,45.9,45.3,51.7,33.7,60.5C22.1,69.2,11.1,81,-2.2,84.8C-15.5,88.7,-30.9,84.5,-43.4,76.2C-55.9,68,-65.4,55.6,-70.3,42.2C-75.1,28.8,-75.3,14.4,-74.8,0.3C-74.3,-13.9,-73.2,-27.7,-68.4,-41.3C-63.6,-54.8,-55.3,-68,-43.3,-75.3C-31.3,-82.5,-15.6,-83.8,-0.7,-82.6C14.2,-81.4,28.5,-77.7,38.8,-69.5Z" transform="translate(100 100)" />
</svg>