<svg viewBox="0 0 200 200" xmlns="http://www.w3.org/2000/svg">
  <path fill="#8C7DF1" d="M38.6,-68.7C51.3,-59.5,63.9,-51.8,73.1,-40.6C82.2,-29.5,87.9,-14.7,86.4,-0.9C84.9,13,76.2,26,66.5,36.1C56.7,46.1,45.8,53.2,34.5,56.6C23.2,60,11.6,59.7,0.5,58.9C-10.7,58.1,-21.4,56.8,-31.9,53C-42.4,49.2,-52.7,42.8,-57.5,33.5C-62.3,24.3,-61.5,12.1,-60.1,0.9C-58.6,-10.4,-56.4,-20.8,-52.3,-31.3C-48.2,-41.8,-42.2,-52.3,-33.2,-63.7C-24.2,-75.1,-12.1,-87.3,0.4,-88.1C12.9,-88.8,25.8,-77.9,38.6,-68.7Z" transform="translate(100 100)" />
</svg>