<svg viewBox="0 0 200 200" xmlns="http://www.w3.org/2000/svg">
  <path fill="#8CD46F" d="M45.9,-78C59.9,-71.4,72,-60,79.1,-46.2C86.2,-32.3,88.4,-16.2,87.2,-0.7C86.1,14.8,81.6,29.7,74.3,43.3C67.1,56.9,57.1,69.2,44.3,78.5C31.4,87.7,15.7,93.7,-0.3,94.2C-16.3,94.8,-32.6,89.7,-46.3,81C-60.1,72.3,-71.3,60,-79.4,45.9C-87.6,31.8,-92.6,15.9,-91.6,0.6C-90.6,-14.7,-83.5,-29.4,-75.2,-43.2C-66.9,-57,-57.4,-70,-44.6,-77.2C-31.9,-84.5,-16,-86.1,0,-86.1C15.9,-86.1,31.9,-84.5,45.9,-78Z" transform="translate(100 100)" />
</svg>